<svg width="108" height="74" viewBox="0 0 108 74" fill="none" xmlns="http://www.w3.org/2000/svg">
  <path fill-rule="evenodd" clip-rule="evenodd"
    d="M6.84088 57.0344C8.1934 57.0853 9.68118 57.187 10.1377 57.2886C10.611 57.3903 11.0844 57.5598 11.1859 57.6785C11.338 57.831 11.3887 58.4073 11.3211 61.1192L10.5603 61.1022C10.1377 61.1022 8.78513 61.0683 7.55095 61.0175C5.69123 60.9666 5.28547 61.0005 5.15022 61.2039C5.04878 61.3734 5.06569 61.5768 5.21785 61.7971C5.33619 61.9836 6.41821 62.6616 7.61858 63.3226C9.00492 64.0683 10.0869 64.7972 10.611 65.3056C11.2197 65.9328 11.4733 66.3565 11.6762 67.1022C11.8452 67.6955 11.9298 68.3904 11.8621 68.9158C11.8283 69.3904 11.6254 70.0684 11.4395 70.4412C11.2535 70.8141 10.8985 71.3735 10.6279 71.6955C10.3574 72.0175 9.78262 72.4413 9.34305 72.6616C8.54844 73.0514 8.41319 73.0684 4.87972 73.0345C1.44768 72.9836 1.21099 72.9667 0.991205 72.6446C0.839046 72.4243 0.754513 71.865 0.754513 71.0345C0.754513 70.2718 0.839046 69.6446 0.957392 69.4751C1.16027 69.204 1.36315 69.187 3.5441 69.3734C4.8459 69.4751 6.1139 69.509 6.3844 69.4582C6.70563 69.3734 6.87469 69.204 6.94232 68.8819C7.00994 68.6107 6.97613 68.2887 6.8916 68.1531C6.79016 68.0175 5.74195 67.3226 4.54158 66.5938C3.34122 65.8819 2.07323 65.0344 1.71819 64.6955C1.38006 64.3565 0.940485 63.7633 0.754513 63.3734C0.517821 62.8649 0.416382 62.2717 0.416382 61.4243C0.416382 60.6785 0.517821 59.9327 0.686887 59.5598C0.822139 59.2039 1.14336 58.6954 1.39696 58.4412C1.65056 58.17 2.07323 57.831 2.36064 57.6785C2.63114 57.5429 3.20597 57.3225 3.62863 57.2039C4.15273 57.0344 5.13331 57.0005 6.84088 57.0344V57.0344ZM20.1125 56.9666C21.0086 56.9666 21.837 57.0683 22.564 57.2886C23.1726 57.4751 23.9841 57.8649 24.373 58.1361C24.7787 58.4242 25.3536 59.0683 25.6748 59.5598C25.996 60.0344 26.3849 60.9327 26.537 61.5429C26.7737 62.4243 26.8075 63.2378 26.7568 65.6955C26.6892 68.3056 26.6385 68.8819 26.3172 69.6785C26.1313 70.187 25.641 70.9836 25.2352 71.4412C24.8295 71.8989 24.1532 72.4413 23.6967 72.6616C22.9697 73.0345 22.6992 73.0684 20.1971 73.0684C17.8809 73.0684 17.3906 73.0175 16.765 72.7463C16.3762 72.5599 15.7168 72.0345 15.2942 71.5938C14.8884 71.1531 14.3812 70.4073 14.1614 69.9328C13.9585 69.4751 13.688 68.4751 13.5866 67.7294C13.4683 66.9328 13.4344 65.4921 13.4852 64.2548C13.5359 63.0853 13.7049 61.7632 13.8402 61.2887C13.9754 60.831 14.3474 60.0683 14.6686 59.5937C14.9729 59.1361 15.5816 58.492 15.9873 58.187C16.3931 57.8649 17.1877 57.4751 17.7456 57.3056C18.3543 57.1192 19.301 56.9836 20.1125 56.9666V56.9666ZM18.3373 62.3565C18.2528 62.6955 18.1683 64.0344 18.1683 65.3226C18.1683 66.848 18.2359 67.8311 18.3881 68.2039C18.5064 68.4921 18.7938 68.8819 19.0305 69.0514C19.2672 69.2209 19.7406 69.3395 20.1971 69.3395C20.7043 69.3508 21.11 69.2378 21.4143 69.0006C21.6848 68.8141 21.9553 68.3904 22.0568 68.0345C22.1413 67.6785 22.2259 66.3904 22.2259 65.187C22.2259 63.9836 22.1413 62.6955 22.0568 62.3565C21.9553 61.9836 21.6848 61.5599 21.4143 61.3734C21.11 61.1361 20.7043 61.0175 20.1802 61.0344C19.673 61.0344 19.2503 61.1531 18.9629 61.3734C18.7093 61.5599 18.4388 62.0005 18.3373 62.3565V62.3565ZM46.9094 57.0175C49.2764 57.0683 49.6145 57.1022 50.4429 57.4751C50.9501 57.7124 51.5926 58.17 51.8631 58.492C52.1505 58.8141 52.4886 59.3565 52.6408 59.6785C52.8606 60.187 52.9113 61.2378 52.9113 72.9836L48.431 73.0684V68.1531H44.7116L44.6271 72.9836L40.1468 73.0684L40.1806 66.5938C40.2313 60.3395 40.2483 60.0853 40.5864 59.4243C40.7893 59.0514 41.2627 58.4581 41.6346 58.1192C42.0234 57.7632 42.3954 57.4751 42.463 57.4751C42.5306 57.4581 42.9702 57.3564 43.4436 57.2209C44.0522 57.0344 45.0159 56.9836 46.9094 57.0175V57.0175ZM44.6778 62.7632L44.7116 64.3395H48.431C48.431 62.1022 48.3465 61.3395 48.262 61.2039C48.1436 61.0175 47.7379 60.9327 46.7911 60.9158C46.0641 60.8819 45.2864 60.9327 45.0666 61.0344C44.6609 61.187 44.644 61.2378 44.6778 62.7632ZM61.1955 57.0344C63.2412 57.0683 64.1034 57.1531 64.7459 57.3734C65.2024 57.5429 65.8617 57.848 66.1829 58.0683C66.5042 58.2887 66.9775 58.7632 67.2311 59.1192C67.4847 59.4751 67.7722 60.0344 67.8736 60.3565C67.975 60.6785 68.0765 61.5599 68.0765 62.3056C68.0934 63.3565 68.0088 63.848 67.7214 64.509C67.5186 64.9836 67.1466 65.5768 66.893 65.8311C66.6394 66.1022 66.2337 66.4243 65.5067 66.7972L66.1998 68.1192C66.5887 68.8311 67.3157 70.187 67.806 71.1192C68.3132 72.0514 68.6682 72.865 68.6006 72.9497C68.5499 73.0175 67.4678 73.0684 63.9005 73.0853L61.111 67.6446H59.9275V73.0684L55.4473 72.9836V65.4921C55.4473 58.2209 55.4642 57.9836 55.7854 57.6446C56.0221 57.4073 56.4786 57.2548 57.307 57.1361C57.9663 57.0683 59.7077 57.0175 61.1955 57.0344ZM59.9275 64.17C62.4466 64.0175 62.8354 63.9327 63.1228 63.6616C63.3257 63.4751 63.5286 63.1361 63.5793 62.8988C63.63 62.6616 63.5962 62.2039 63.4948 61.8819C63.3934 61.526 63.1567 61.2039 62.8862 61.0853C62.6495 60.9666 61.8887 60.8649 61.1955 60.8649H59.9275V64.17ZM76.0733 56.9836C76.9524 56.9666 78.0344 57.0853 78.6093 57.2378C79.1672 57.3734 79.8603 57.6615 80.1309 57.8819C80.4183 58.0853 80.824 58.6446 81.4834 59.9327V72.9836L79.3701 73.0684V66.4582H72.9456V73.0684H70.9168V59.9327L71.3902 59.0175C71.6776 58.4412 72.0664 57.9836 72.4384 57.7463C72.7596 57.5598 73.3682 57.3056 73.7909 57.187C74.2136 57.0853 75.2449 56.9836 76.0733 56.9836V56.9836ZM73.3513 59.7971C73.1146 60.17 73.0301 60.7463 72.9456 62.4412L72.861 64.5938H79.3701C79.3701 61.6446 79.3024 60.4921 79.201 60.1531C79.0826 59.6954 78.8798 59.4412 78.5247 59.2548C78.1697 59.0683 77.4934 59.0005 76.2085 59.0175C75.211 59.0175 74.2136 59.0853 74.0276 59.17C73.8247 59.2548 73.5204 59.5429 73.3513 59.7971V59.7971ZM88.3305 57.0005C89.1251 56.9836 90.2579 57.0683 90.8665 57.2039C91.4752 57.3225 92.236 57.5598 92.5572 57.7293C92.8784 57.8819 93.3687 58.2209 93.6392 58.4751C93.8928 58.7124 94.2647 59.2039 94.4338 59.5598C94.6198 59.8988 94.8057 60.6615 94.8565 61.2548C94.9241 61.8819 94.8734 62.7124 94.755 63.3226C94.6029 63.9666 94.3324 64.5938 93.9942 65.0175C93.7068 65.3904 93.1658 65.865 92.8108 66.0683C92.4388 66.2717 91.5597 66.5768 90.8665 66.7294C89.9705 66.9158 89.1928 66.9667 86.8089 66.7972L86.7244 72.9836L84.6111 73.0684V65.2717C84.6111 59.2209 84.6618 57.4412 84.8309 57.3564C84.9492 57.2886 85.4564 57.17 85.9636 57.1192C86.4708 57.0683 87.5359 57.0005 88.3305 57.0005V57.0005ZM86.8089 59.0005V64.9327C87.5359 65.1022 88.3813 65.1192 89.1759 65.0683C90.1057 65.0175 90.8496 64.8819 91.2723 64.6616C91.6442 64.4921 92.1007 64.1192 92.2867 63.8649C92.5403 63.526 92.6586 63.0514 92.7093 62.3395C92.7432 61.7632 92.6924 61.0175 92.591 60.6954C92.4896 60.3734 92.219 59.9327 92.0162 59.7463C91.7964 59.5429 91.3568 59.2887 91.0356 59.187C90.7144 59.0683 89.8352 58.9497 89.0913 58.9158C88.3474 58.8819 87.5359 58.8988 87.2823 58.9327L86.8089 59.0005ZM101.01 56.9836C101.788 56.9836 102.938 57.0683 103.546 57.2039C104.138 57.3225 104.899 57.5598 105.237 57.7293C105.558 57.8819 106.032 58.2209 106.302 58.4581C106.573 58.7124 106.945 59.2209 107.131 59.5937C107.35 60.0005 107.519 60.7293 107.57 61.4582C107.615 62.2491 107.548 62.9553 107.367 63.5768C107.232 64.0853 106.843 64.8141 106.539 65.187C106.218 65.5599 105.592 66.0344 105.136 66.2378C104.679 66.4412 103.766 66.6955 103.124 66.7972C102.431 66.9328 101.433 66.9667 99.4889 66.7972L99.4043 72.9836L97.291 73.0684V65.2717C97.291 59.2039 97.3248 57.4412 97.4939 57.3395C97.6122 57.2717 98.1194 57.17 98.6435 57.1192C99.1507 57.0683 100.216 57.0005 101.01 56.9836ZM99.4889 59.0005V64.9327C100.199 65.1022 101.061 65.1192 101.856 65.0683C102.786 65.0175 103.53 64.865 103.952 64.6616C104.324 64.4751 104.781 64.1192 104.967 63.8649C105.203 63.526 105.339 63.0344 105.372 62.3395C105.423 61.7632 105.355 61.0175 105.254 60.6954C105.153 60.3734 104.899 59.9327 104.679 59.7463C104.476 59.5429 104.037 59.2887 103.716 59.187C103.377 59.0683 102.515 58.9497 101.771 58.9158C101.027 58.8819 100.199 58.8819 99.9454 58.9327L99.4889 59.0005ZM33.4687 57.2209L33.5533 63.187C33.604 66.8141 33.7054 69.2209 33.8069 69.3226C33.9083 69.4073 34.9734 69.509 38.3716 69.5938L38.4562 71.1531C38.5069 72.0175 38.5238 72.8141 38.5069 72.8989C38.4731 73.0006 37.1205 73.0684 31.609 73.0684L30.8144 72.5599C30.1888 72.1701 29.9014 71.8141 29.073 70.1023L28.9885 63.848C28.9378 58.7293 28.9547 57.5598 29.1406 57.3564C29.3266 57.17 29.8169 57.1361 33.4687 57.2209Z"
    fill="#3175A7" />
  <path fill-rule="evenodd" clip-rule="evenodd"
    d="M33.4349 0.356201C33.5363 0.356201 33.9421 0.796881 34.3309 1.33926C34.7029 1.86468 36.1568 3.86469 37.5263 5.77995C38.9126 7.69521 41.381 11.0512 43.0209 13.2376C44.6608 15.4241 46.3177 17.4749 46.6727 17.7969C47.0278 18.119 47.704 18.5597 48.1774 18.78C48.6846 19.0173 49.344 19.1698 49.8173 19.1698C50.4598 19.1698 50.7303 19.0681 51.153 18.7122C51.4404 18.441 51.9814 17.6275 52.3364 16.8817C52.7084 16.119 53.1987 14.6105 53.4861 13.4071C53.7735 12.2376 54.1116 10.6444 54.2469 9.84776C54.3821 9.05115 54.5512 7.94945 54.6019 7.39013C54.6864 6.72911 54.8048 6.37317 54.94 6.37317C55.0753 6.37317 55.1936 6.72911 55.2782 7.39013C55.3289 7.94945 55.5656 9.35624 55.8023 10.5257C56.039 11.6952 56.4616 13.441 56.7321 14.4241C57.0195 15.4071 57.5267 16.7291 57.8649 17.3732C58.2199 18.0173 58.6764 18.6953 58.9131 18.8647C59.1836 19.0681 59.6063 19.1868 60.0965 19.1698C60.5868 19.1698 61.1955 19.0003 61.7872 18.7122C62.2944 18.458 63.0214 17.9325 63.3933 17.5597C63.7653 17.1868 65.0164 15.6274 66.1829 14.0851C67.3495 12.5427 70.0545 8.88166 72.1678 5.94944C74.2981 3.01723 76.0902 0.559592 76.1409 0.491795C76.1916 0.423998 76.3268 0.423998 76.4452 0.491795C76.5974 0.576541 76.4283 1.61044 75.752 4.67825C75.2448 6.91555 74.3826 10.8817 73.8078 13.4918C73.2499 16.102 72.5905 19.2376 72.3538 20.441C72.1171 21.6614 71.9311 22.9326 71.9311 23.2885C71.9311 23.6275 71.9988 24.0682 72.1002 24.2546C72.2016 24.441 72.506 24.7122 72.7765 24.8478C73.047 24.9834 73.7063 25.1021 74.2135 25.1021C74.7207 25.1021 75.6506 24.9665 76.2761 24.8139C77.0876 24.6105 78.0513 24.136 79.5391 23.2207C80.7056 22.5088 82.9373 21.102 84.5265 20.0681C86.1157 19.0512 87.7219 18.0003 88.1276 17.7122C88.601 17.3902 88.9053 17.2715 89.0068 17.3902C89.1082 17.4919 88.5165 18.4241 87.3837 19.9326C86.4032 21.2376 84.8647 23.4071 83.9686 24.7631C83.0726 26.1021 81.9736 27.8987 81.551 28.7461C81.1283 29.5767 80.7226 30.5767 80.6549 30.9495C80.5704 31.458 80.6042 31.797 80.8409 32.2716C81.0607 32.7292 81.365 33.0343 81.906 33.2885C82.4977 33.5767 83.0557 33.6784 84.3575 33.7123C85.4057 33.7631 86.6906 33.6784 87.7388 33.4919C88.6686 33.3394 91.7118 32.7631 94.5014 32.2207C97.291 31.6784 100.419 31.0682 101.433 30.8817C102.447 30.6784 103.394 30.5258 103.496 30.5258C103.614 30.5258 103.699 30.5936 103.665 30.6784C103.648 30.7631 102.38 31.475 100.841 32.2716C99.3029 33.0512 97.3248 34.136 96.4457 34.6784C95.5665 35.2038 93.8928 36.3055 92.7262 37.1021C91.5597 37.8987 90.0888 38.9665 89.4294 39.4919C88.7701 40.0004 87.7726 40.8818 87.1978 41.4581C86.6399 42.0174 86.0143 42.814 85.8114 43.2377C85.6255 43.6615 85.4564 44.2377 85.4564 44.5089C85.4564 44.7801 85.5409 45.2886 85.6424 45.6106C85.7607 45.9327 85.9636 46.3394 86.1157 46.492C86.3524 46.7632 86.3524 46.814 86.1327 46.8818C85.9974 46.9327 85.1183 46.9496 82.5147 46.8818L82.278 46.0343C82.1596 45.5767 81.8215 44.4242 81.5341 43.492C81.2467 42.5598 80.5366 40.8479 79.9449 39.6784C79.37 38.5089 78.3725 36.8309 77.747 35.9496C77.1045 35.0682 75.938 33.6614 75.1434 32.8309C74.3488 32.0004 73.0639 30.797 72.2693 30.1699C71.4747 29.5258 70.0376 28.5258 69.057 27.9495C68.0764 27.3733 66.707 26.6614 66.0138 26.3563C65.3207 26.0682 64.0189 25.5936 63.1397 25.2885C62.2606 25.0004 61.0095 24.6614 60.3501 24.5258C59.6908 24.3902 58.2199 24.1868 57.0534 24.0851C55.4303 23.9156 54.4497 23.9156 52.8267 24.0851C51.6602 24.1868 50.0709 24.4241 49.2763 24.5936C48.4817 24.7631 47.2645 25.0851 46.5713 25.3224C45.8781 25.5597 44.6101 26.0512 43.7817 26.3902C42.9364 26.7461 41.5669 27.458 40.7385 27.9665C39.8932 28.458 38.5745 29.3733 37.7799 30.0004C36.9853 30.6106 35.7342 31.7123 35.0072 32.475C34.2633 33.2207 33.0629 34.6275 32.336 35.6106C31.5413 36.6784 30.5608 38.3394 29.8338 39.7631C29.0054 41.4242 28.4813 42.797 28.0417 44.3394C27.7036 45.5428 27.3992 46.6445 27.3654 46.7632C27.3147 46.8988 26.8075 46.9666 25.5564 46.9666C24.6097 46.9666 23.7981 46.9327 23.7474 46.8818C23.6967 46.831 23.832 46.4411 24.0517 45.9835C24.2546 45.5428 24.4237 44.9326 24.4237 44.6445C24.4237 44.3394 24.3053 43.7971 24.1532 43.4581C24.001 43.1021 23.3755 42.2886 22.7668 41.6445C22.1413 41.0174 20.9916 39.9835 20.197 39.3394C19.4024 38.7123 18.033 37.6953 17.1539 37.1021C16.2747 36.4919 14.6348 35.4411 13.5189 34.7631C12.4031 34.0851 10.2898 32.9157 8.81892 32.1529C7.34805 31.4072 6.14768 30.7292 6.16459 30.6614C6.16459 30.5767 6.26603 30.5258 6.36747 30.5258C6.48581 30.5258 7.41567 30.6784 8.44698 30.8817C9.46137 31.0682 12.4031 31.6445 14.956 32.1529C17.5089 32.6445 20.4845 33.2207 21.5496 33.4072C22.6147 33.5936 24.1701 33.7462 25.0154 33.7462C25.8776 33.7462 26.9259 33.6445 27.4161 33.4919C28.0417 33.3224 28.4474 33.0682 28.7518 32.6953C29.1406 32.2038 29.1913 32.0173 29.1237 31.2038C29.0899 30.5428 28.8701 29.8648 28.3798 28.9156C28.0079 28.1699 27.0273 26.5258 26.2158 25.2716C25.3874 24.0173 24.0686 22.1021 23.274 21.0342C22.4794 19.9664 21.5158 18.7122 21.1438 18.2715C20.6873 17.7461 20.5183 17.4071 20.6197 17.3054C20.7211 17.2037 22.0906 18.0003 24.3391 19.458C26.2834 20.7292 28.8701 22.3732 30.0874 23.1021C31.3385 23.8648 32.7586 24.5766 33.3842 24.78C33.9928 24.9665 34.9227 25.1021 35.4468 25.1021C35.9878 25.1021 36.6978 24.9834 37.0191 24.8478C37.4586 24.6614 37.6615 24.441 37.7968 23.9665C37.9489 23.4749 37.9489 23.0004 37.7968 22.0512C37.6784 21.3563 37.1712 18.8309 36.664 16.458C36.1399 14.0851 35.1594 9.57658 34.4662 6.45792C33.7899 3.33926 33.2151 0.678236 33.2151 0.576541C33.2151 0.457896 33.3165 0.356201 33.418 0.356201L33.4349 0.356201ZM54.7033 27.4919C56.0559 27.475 57.7972 27.5766 58.5919 27.7122C59.3865 27.8309 60.7559 28.136 61.635 28.3733C62.5142 28.6275 63.7315 29.0173 64.3401 29.2546C64.9487 29.4919 66.0477 30.0343 66.7915 30.4411C67.5354 30.8478 68.7189 31.5767 69.4121 32.0682C70.1052 32.5597 71.3901 33.6614 72.2693 34.5089C73.1484 35.3394 74.4164 36.797 75.1096 37.7292C75.8027 38.6614 76.7664 40.2208 77.2736 41.2038C77.7639 42.1869 78.4571 43.797 78.7783 44.814C79.1164 45.814 79.3531 46.6954 79.3024 46.7971C79.2517 46.8988 78.5585 46.9666 77.7301 46.9666C76.9186 46.9666 75.5491 46.9157 73.0977 46.7123L68.161 40.6445C65.4559 37.3055 63.1904 34.5767 63.1059 34.5936C63.0383 34.5936 61.4829 36.4411 59.657 38.7123C57.8142 40.9665 55.9037 43.3055 55.3965 43.9157C54.8893 44.5259 54.4159 45.0343 54.3314 45.0682C54.2638 45.0852 52.9282 44.0513 51.3558 42.7631C49.8004 41.492 47.349 39.475 45.9119 38.3055C44.4749 37.136 43.19 36.136 43.0716 36.0682C42.9364 35.9835 42.6997 36.2377 42.3954 36.7631C42.1249 37.2038 40.8231 39.4242 39.4874 41.7123C38.1518 44.0004 36.9176 46.0682 36.4443 46.7971H33.4856C31.6259 46.7971 30.527 46.7293 30.527 46.6276C30.527 46.5259 30.7636 45.7123 31.0511 44.814C31.3385 43.8987 31.9809 42.3564 32.4712 41.3733C32.9784 40.3903 33.8575 38.9157 34.4493 38.0682C35.041 37.2377 36.2752 35.7801 37.205 34.8479C38.1349 33.9157 39.5043 32.7292 40.2482 32.1868C40.9921 31.6614 42.4799 30.7801 43.545 30.2038C44.7116 29.6106 46.267 28.9495 47.4335 28.6106C48.4986 28.2885 50.0202 27.8987 50.8148 27.7631C51.6094 27.6275 53.3508 27.4919 54.7033 27.4919V27.4919ZM62.9876 37.475C63.089 37.475 63.7484 38.2208 64.4584 39.136C65.1685 40.0343 67.2311 42.5937 72.2862 48.831H75.1096C76.6819 48.831 84.3067 48.9157 92.0669 49.0005C99.827 49.1022 106.421 49.2208 106.691 49.2717C106.995 49.3055 107.198 49.4411 107.198 49.5937C107.198 49.7801 106.995 49.8479 106.353 49.8479C105.88 49.8479 101.129 49.9666 95.7863 50.1022C90.4438 50.2378 82.9711 50.4242 72.2862 50.6954L67.5016 47.814C64.8811 46.2208 62.7171 44.9496 62.7171 44.9666C62.7002 45.0004 61.8886 46.2716 60.9081 47.814C59.9444 49.3564 58.558 51.5259 57.848 52.6445C57.1379 53.7632 56.4616 54.7462 56.3433 54.831C56.208 54.9327 55.4641 54.509 54.1116 53.5768C52.9958 52.7971 50.4091 51.0174 48.3634 49.5937C46.3177 48.1869 44.3058 46.7801 43.1223 45.9496L42.277 46.6784C41.8036 47.0682 40.6033 48.0852 37.7799 50.4411L34.9565 50.3903C33.4011 50.3734 28.3291 50.2717 23.6798 50.1869C19.0305 50.1022 12.9779 49.9666 10.2222 49.8988C5.91099 49.7801 5.21782 49.7293 5.25163 49.5089C5.28545 49.2886 5.96171 49.2377 9.74878 49.1361C12.2002 49.0852 19.4532 48.9496 25.8776 48.8479C36.5626 48.6615 37.5601 48.6276 37.763 48.3564C37.8813 48.2039 39.0479 46.2377 40.3666 44.0004C41.6684 41.7631 42.8518 39.814 42.9533 39.6784C43.1393 39.4581 43.3252 39.5597 44.3396 40.3733C44.9652 40.8818 47.2475 42.6276 49.3778 44.2547C51.508 45.8649 53.6382 47.5089 54.0778 47.8818C54.5174 48.2716 54.9062 48.5428 54.94 48.492C54.9739 48.4411 55.8699 47.1869 56.935 45.6954C58.0001 44.2038 59.5724 42.0004 60.4347 40.7801C61.3138 39.5767 62.193 38.3225 62.4297 38.0343C62.6494 37.7292 62.903 37.475 62.9876 37.475V37.475Z"
    fill="#FFDF20" />
</svg>
  